<?xml version="1.0" encoding="utf-8"?>
<!-- Generator: Adobe Illustrator 26.2.1, SVG Export Plug-In . SVG Version: 6.00 Build 0)  -->
<svg version="1.1" id="Layer_1" xmlns="http://www.w3.org/2000/svg" xmlns:xlink="http://www.w3.org/1999/xlink" x="0px" y="0px"
	 viewBox="0 0 818.7 399.6" style="enable-background:new 0 0 818.7 399.6;" xml:space="preserve">
<style type="text/css">
	.st0{fill:#C49406;}
	.st1{fill:#930708;}
</style>
<path class="st0" d="M218.4,323.7c-11.8-29.3-23-58.8-29.2-89.9c-0.4-2-0.5-4.2-1.6-5.7c-10.5-14.1-4.5-27.5-0.2-42.1
	c10.9-36.8,40.3-55.1,69.7-74.1c28.9-18.6,62.4-26.2,93.5-39.7c19.8-8.6,40.7-13.9,61.7-18.5c35.2-7.8,70.9-11.9,106.8-13
	c30.7-1,61,2.7,88.8,16.6c9.9,4.9,14.9,16.2,18.3,26.4c4.7,13.8,7.9,28.2,10.4,42.6c2.6,14.3,8.9,27.1,14.6,40
	c7.3,16.8,8.5,33.6,1.4,50.2c-10.3,24-24.3,46.1-46.1,61.1c-22.6,15.6-43.4,33.4-67.8,46.8c-34.9,19.2-71.7,33.2-110.5,38.2
	c-42.3,5.5-84.8,13.4-127.9,7.8c-16.7-2.1-33.4-4.3-50-7.3c-10.6-1.9-19.1-7-22.8-18.3C225.2,337.4,221.5,330.6,218.4,323.7z
	 M233.1,234.3c1,0.4,2,0.8,3,1.2l-0.4-0.1c1,0.3,2,0.6,3,0.9l-0.2,0c1,0.3,2,0.7,2.9,1l-0.3,0c1.7,0.6,3.5,1.2,5.2,1.7
	c-0.1,1.4,0.4,1.3,1.1,0.4c1.5,0.7,3,1.4,4.5,2l-0.4-0.1c1.2,0.4,2.5,0.8,3.7,1.2c8.5,3.6,17.4,5,26.4,3.5
	c14.2-2.4,28.4-2.1,42.7-2.1c7,0,14.1,0.7,20.8-1.5c24.4-7.9,50.2-10.2,74.5-18.1c18.9-6.1,39-8.9,56.3-19.6
	c5.9-3.7,11.7-7.6,17.8-11c24.8-14.2,51.8-24.4,75.1-41.4c16.1-11.8,32-23.7,39.7-43.4c6.7-17.2-0.8-40.8-16.3-44.4
	c-12.1-2.8-24.3-6.7-37.4-3.8c-6.9,1.5-14.4,3.2-20.4-3.5c-2.5-2.7-6.3-1.2-9.5-0.4c-3.9,1-8,2.1-11.8,0.5
	c-6.8-2.9-13.7-2.4-20.6-1.2c-6.4,1.1-12.6,0.9-18.7-0.9c-4-1.1-7.8-1.2-11.8-0.2c-13.2,3.2-26.3,6.5-39.6,9.4
	C411,67,401.7,74.8,390,76.9c-13.6,2.5-27.1,5.4-40,11.3c-13.5,6.2-26.9,13.1-42,15.4c-4.9,0.7-9.6,3.8-14,7
	c-22.3,16.2-44,33-63,52.9c-9.5,9.9-19.6,19.5-23.5,33.7c-2.6,9.3-2.6,16.8,6,22.8c6,4.2,11.6,8.9,17.3,13.3l-0.2-0.3
	c1,0.5,1.9,1,2.9,1.4L233.1,234.3z M260,295.1c-2-0.9-3.9-1.8-5.9-2.7c-0.1-0.4-0.3-0.7-0.4-1.1c-0.3,0.2-0.6,0.5-0.9,0.8
	c-2.3-0.5-4.6-1.1-6.8-1.6c-13.3-0.9-17.7,4.5-13,16.2c3.5,9,7.2,17.9,11.2,26.7c3.3,7.4,9,13.3,17.3,13.1
	c6.6-0.1,13.2,1.1,19.8,0.5c6.2,2.5,12.6,3.5,19.3,3.2c1.3,0.3,2.6,0.7,4,1c-0.3,0.3-0.5,0.5-0.8,0.8c0.1-0.3,0.1-0.6,0.2-0.8
	c3.5,0.6,7,0.2,10.3-1.1c17,2.8,34,3.5,50.9-0.6c6.8,2.8,12.1-0.3,17.2-4.2c5.3-0.8,10.5-1.6,15.8-2.4c7.2,4.3,14.4,3.9,21.6-0.2
	c11.9,0.5,22.6-4.1,33.6-7.6c13.3-3.5,26.1-8.3,39.5-11.5c12.4-3,24.2-8.5,33.9-17.5c6.1,1.3,10.9-1,15.3-5.1
	c13.3-12.5,27-24.5,44.2-31.7c4.1-1.7,6.9-5.1,7.5-9.9c10.7-1.3,13.3-11.6,19.7-17.6c1.2-1,2.4-2.1,3.5-3.1l0.5-0.5l-0.2-0.7
	l0.2-0.7c6.1-4.6,8.3-11.1,8.7-18.3c8.1-12.3,11.2-25.4,5.7-39.7c-1-2.7-0.2-6.5-4-7.4c-3.5-0.8-5.4,1.9-7.2,4.3
	c-5.8,7.7-11.5,15.4-17.3,23.1c-2.4-1.1-5.1-1.8-7.1-3.4c-3.7-3-6-9.4-11.9-7.1c-6.6,2.6-4.6,9.5-5.3,14.9c-0.2,1.6-0.2,3.3-0.3,4.9
	c-13.4,0.4-23.4,8.4-33.3,15.9c-17.7,13.3-32,30.4-48.3,45.2c-1.2-1.5-2.6-3-3.5-4.6c-2.9-5.3-6.7-9-13.2-7.8
	c-7.2,1.3-7.4,7.2-7.9,12.8c-13.1-1.5-26.9-4.2-38.7,3c-12.4,7.6-24.6,15.4-37.4,22.4c-2.1-2-4.3-4-6.4-6.1
	c-4.3-4.3-7.8-11.3-15.1-8.8c-7.1,2.4-4.5,10.1-5.7,15.6c-25.7,2.3-53.2-5-75.6,14.4c-2.7-3.6-5.4-7.3-8.2-10.9
	c-6.6-8.2-9.6-8.1-16.4,0.2c-2.6-1.3-5.2-2.7-7.9-4C261,294.6,260.7,294.4,260,295.1z"/>
<path class="st1" d="M801.2,97.9c2.8,6.9-0.1,11.5-8.5,13.3c-14.9,3.1-29.8,6.5-44.7,9.1c-17.1,3-33.3,8.8-49.9,13.7
	c-7.4,2.2-12.4,1-15.1-6.5c-1.8-4.9-0.4-8,5.1-9.7c24.1-7.2,47.5-17,72.6-20.7c10.5-1.5,20.9-3.4,31.4-5.1
	C796.8,91.2,799.5,93.7,801.2,97.9z"/>
<path class="st1" d="M140.6,273c-27.8,7.7-53.8,20.8-81.8,28.1c-6.4,1.7-11.4,0.5-14.1-5.6c-2.9-6.8,1.1-11.2,7.1-12.9
	c29.4-8.4,57.2-21.2,86.5-29.8c2.8-0.8,5.9-0.7,8.9-1.1c5.9-0.7,7.1,3.9,8.7,7.9c1.7,4.3-0.6,6.9-4.3,8.7
	C147.8,269.8,144.2,271.4,140.6,273z"/>
<path class="st1" d="M136.5,395.7c-5.3,1-9.5-1-13.1-3.9c-3.5-2.9-2.2-6.9-0.5-10.1c9.2-16.4,20.6-31.5,32.1-46.4
	c3.7-4.9,9.9-3.4,14.6-0.9c4.7,2.5,2.7,7,1,10.6c-8.3,17.5-20.5,32.3-31.5,48C138.4,394.2,137.3,394.9,136.5,395.7z"/>
<path class="st1" d="M148.7,172.8c0.1,4.2,4.1,8.3,0.7,12.4c-3.1,3.7-7.4,4-11.9,3c-16.4-3.4-33.5-2.5-49.2-10
	c-5.6-2.7-9.7-5.9-8-11.6c1.8-6.1,7.8-7.7,13.9-6.7c14,2.4,28,4.9,42,7.6C140.6,168.4,146.5,166.1,148.7,172.8z"/>
<path class="st1" d="M682.2,61.8c-4.6,2.4-8.1,2-10.8-1.2c-2.8-3.2-4.5-7.3-1.5-10.9c8.7-10.4,16.7-21.4,27.4-29.9
	c5.8-4.6,12-1.6,16.1,2.8c4.4,4.6,0.7,10.1-3,12.9c-9.6,7.2-18.4,15-25.8,24.4C683.8,61,682.4,61.6,682.2,61.8z"/>
<path class="st1" d="M699,202.8c-3.7-8.5-0.9-13.1,8.2-12.2c11.1,1.1,22.2,2.8,33,5.9c6.1,1.7,7.4,5.9,6.1,11.5
	c-1.3,5.6-4.9,9.3-10.5,8.2c-10.6-2-21.1-5.1-31.6-7.8C701.3,207.7,699.9,205.4,699,202.8z"/>
<path class="st0" d="M721,171.2c-8.1,0.1-16.9,2.6-25.9,1.1c-3.1-0.5-5.6-2.5-5.4-6.1c0.2-3.3,2-6.1,5.2-6.5
	c7.9-0.9,15.8-1.4,23.8-1.5c3.7-0.1,6,2.6,6.7,6.3C726,167.6,724.5,169.6,721,171.2z"/>
<path class="st0" d="M139.4,319.1c-5.7,2.8-9.7,3.5-12.3-0.7c-2.5-4.1,0.4-7.2,3.4-9.2c5.2-3.5,10.6-6.6,16.2-9.6
	c2.9-1.5,6-0.8,8.1,1.8c2.3,3,0.6,6-1.7,7.9C148.2,313.2,142.9,316.6,139.4,319.1z"/>
<path class="st0" d="M140.1,221.4c-8.8,2.6-18,3.7-27.3,4.2c-3.3,0.2-5.8-1.5-6.4-5c-0.7-3.7,1.6-5.8,4.6-6.7
	c8.6-2.6,17.3-5,26.3-5.5c4.2-0.2,7,2.1,7.7,6.3C145.6,218.3,143,219.9,140.1,221.4z"/>
<path class="st0" d="M195.9,353.2c4.7-2,7.8,0.6,8,5.2c0.3,7.6-1.4,15.1-4,22.2c-1.8,4.7-5.9,5-9.4,1.3
	C186.6,377.7,190.8,355.9,195.9,353.2z"/>
<path class="st0" d="M637.3,4.2c3,7.4-10.9,27.6-18.1,27.2c-4.4-0.2-6.3-2.9-4.5-6.7c3.2-6.8,6.5-13.8,11-19.9
	C628.7,0.7,633.6-1.8,637.3,4.2z"/>
<path class="st0" d="M695.7,73.3c3.9-1.8,7.8-3.8,11.9-5.2c3.1-1.1,6,0,7.6,3.1c1.6,3.4,0,5.8-2.8,7.6c-6.2,3.9-12.3,8-18.7,11.5
	c-4.7,2.6-10.1,3.3-12.8-2.8c-2.4-5.3,1.9-7.8,6-9.7c3-1.4,6.1-2.7,9.1-4.1C695.8,73.6,695.8,73.5,695.7,73.3z"/>
<path class="st0" d="M170.5,133c1.4,5.6,0.9,10.2-5.8,9.8c-6.9-0.4-13.4-3.4-19.3-7c-3.4-2-4.7-5.5-2.8-9.4c2-4.2,5.5-3,8.5-1.9
	C157.9,126.8,165.3,127.9,170.5,133z"/>
<path class="st1" d="M476,204.9c-17.3,10.7-37.4,13.5-56.3,19.6c-24.4,7.9-50.1,10.1-74.5,18.1c-6.7,2.2-13.8,1.5-20.8,1.5
	c-14.3,0-28.5-0.3-42.7,2.1c-9,1.5-17.9,0-26.4-3.5c3.2-2.3,6.3-1.2,9.4,0.2c10.3,4.6,20.3,1.2,30.2-1.1c4.6-1.1,5.8-5.4,5.3-9.6
	c-0.4-3.1,1.1-7.3-2.7-9c-4-1.9-7,1.1-9.5,3.7c-4,4.3-9.2,6.5-14.4,8.8c-11.5,5.1-16.7,2.5-19.5-9.5c-2.6-11.4-4.1-12.3-15.2-8.5
	c-1.9,0.6-3.7,1.6-5.6,2.1c-8.3,2.1-11.4-1.2-8.9-9.6c0.7-2.2,2-4.2,2.7-6.4c3.1-10.4,14.8-16.6,15.8-27.1c1.8-17.5,11-25.2,27.2-27
	c5.5-0.6,8.4-3.2,8.4-9c-0.1-9.6,6.1-13.4,14.5-14.6c5.2-0.7,10.7-1.5,15.9-1c10.1,1,14.9-3,17.6-13c3.9-14.7,8.6-16.3,19.7-6.8
	c6.8,5.8,12.7,6.3,18.3-3.2c6.8-11.3,21.9-14,34.4-7.9c16.7,8.2,19.3,7.4,28.7-8.1c1.7-2.8,3.5-5.7,5.4-8.4
	c8.4-12.1,12.6-13.3,25.5-6.7c5.9,3,9.8,3.2,15.5-2.2c10.1-9.6,18-11.5,26.3-1c4.6,5.8,10.5,6.8,16.1,0.7c5.3-5.9,13.2-6.8,18.1-2.6
	c9.4,8.1,18.4,6.5,28.4,3.2c1.6-0.5,3.3-0.6,4.9-0.7c7.5-0.6,9,3.8,8.5,10.1c-0.4,5.2-8,9.1-4.1,14.3c3.4,4.5,10.2,0.6,15.2,2.7
	c1.5,0.6,3.2,0.8,4.8,1.3c4,1.4,9.3,2,9.4,7.4c0.1,5.1-3.8,8.4-8.3,10.2c-6.8,2.7-13.7,5-20.8,7.1c-8.5,2.5-12.5,6.3-7.9,15.9
	c4.1,8.6-0.1,14-9.8,14.3c-7.6,0.2-15.3,0.1-22.9,0.7c-4.7,0.3-9.1,1.3-9.8,7.7c-1.9,16.7-2.7,17.2-19.5,14.7
	c-3-0.4-5.9-1.1-8.8-1.5c-17-2.6-19.3-6.3-18.6,16.9c0.3,10.8-6.2,15-16.1,10.3c-5.1-2.4-10.2-4.7-15.6-6.5
	c-8.8-2.8-13.4-1-15.5,8.8c-2.7,12.5-12.6,17.4-25.1,13.9c-4.1-1.2-8.1-3-12-4.8c-4-1.7-7.6-1.1-9.5,2.6c-2.4,4.6-7.5,8.9-5.3,14.4
	c2,5,7,2,10.7,1.5C417.7,225.5,446.8,214.9,476,204.9z M247.1,197.1c14.7-1.3,18.3,0.8,19.6,10.8c1.7,12.1,4.1,13.3,14.7,6.5
	c6.4-4.1,11.5-10.2,18.8-13c5.4-2.1,9.8-2,12.2,4.2c4.8,12.2,5,12.2,15.3,3.2c12.7-11.2,21.7-10.2,30.1,3.6c3.6,5.9,6.7,5.9,9.9-0.2
	c2.3-4.4,4.7-8.8,7-13.2c3.8-7.2,8.9-7.2,14.6-2.6c4.5,3.7,9.6,5.7,14.9,7.7c8.6,3.2,12.2,1.7,13.3-8.5c2-19,5.9-21,24.3-16.5
	c2.3,0.5,4.6,0.7,6.9,1.3c12.2,3.2,12.4,3.2,13.5-9.9c0.6-8.1,3.4-12.6,12.6-13.2c7.2-0.4,13.9,0.2,20.6,2c6.1,1.6,9.5-0.4,9.2-6.4
	c-0.5-7.4,4-9.8,9.6-12c7-2.7,14.3-2,21.6-2.3c3.5-0.1,8.8,0,5.8-5.7c-5.1-9.7,0.5-13.2,8-16.4c10.9-4.6,10.8-4.6,3.9-14.6
	c-0.6-0.8-1.6-1.9-1.4-2.6c4.8-13-5.2-13.8-13.2-16.3c-1.2-0.4-2.5-1.3-3.2-2.3c-5.6-8-11-6.3-17.2-0.4c-8.2,7.7-14.8,7.5-23.4-0.1
	c-5.5-4.8-10.5-5.6-14.6,1.6c-4.9,8.6-11.4,9.8-20.2,5.7c-14.9-7-18.9-5.4-25,10.5c-2.9,7.6-7.1,12.6-15,14.2
	c-7.6,1.5-14.3-1-21-4.5c-15.3-7.9-19.6-6.4-27.9,9.3c-6.7,12.6-10.7,14-22.5,6c-8-5.4-10.3-2.8-10.8,5.5
	c-0.4,6.3-3.3,11.8-10.4,10.5c-8.4-1.5-16.6,0.4-24.8-0.2c-6.1-0.5-10.4,1.2-12.2,7.5c-2.2,7.4-7.6,11.3-14.7,13.5
	c-5.1,1.6-9.9,3.9-14.8,6c-2.1,0.9-5.5,2.3-4.4,4.6C262.5,182.2,253,188.3,247.1,197.1z M351.7,228.6c-5.4-11.5-10.1-13.2-19-5.9
	c-5.1,4.2-10,8.6-16,11.5c-1.6,0.8-2.8,2.1-2.6,3.9c0.3,2.4,2.3,3.1,4.3,3.3c9.3,0.9,18.5,1.4,27.6-1.1
	C353,238.4,355.8,234.9,351.7,228.6z"/>
<path class="st1" d="M453.1,335.1c13.5-3.3,18.8-12.5,20.1-25.7c0.9-9.5,4.5-18.6,4.2-28.4c-0.1-4.7-1-8.5-5-11.2
	c0.5-5.6,0.8-11.5,7.9-12.8c6.5-1.2,10.3,2.5,13.2,7.8c0.9,1.7,2.3,3.1,3.5,4.6c3.7,13.7,15,21.5,24.2,30.9c1.8,1.9,3.5,3.9,5.3,5.8
	c-9.7,9-21.5,14.5-33.9,17.5C479.2,326.8,466.4,331.6,453.1,335.1z M496.5,320.3c4.1-1.8,6.2-2.7,8.3-3.7c4-2,7.4-5.9,3.6-9.3
	c-5.3-4.7-7-14.4-16.6-13.3c-1.3,0.2-3,2.8-3.4,4.5c-1.6,6.4-3,12.8-4,19.3c-0.6,3.8,1.9,5.5,5.6,4.6
	C492.9,321.8,495.7,320.6,496.5,320.3z"/>
<path class="st1" d="M364.9,349.5c-3.4-9.3,2.3-17,5.3-24.6c4.1-10.3,5-19.6-1.1-29.1c1.2-5.5-1.4-13.1,5.7-15.6
	c7.3-2.5,10.8,4.5,15.1,8.8c2.1,2.1,4.3,4.1,6.4,6.1c3,15.7,11.6,29.2,17.9,43.6c0.8,1.8,3.5,2.7,5.3,4c-7.2,4-14.4,4.5-21.6,0.2
	c2.8-9.1-4-15.5-6.3-23.2c-0.5-1.8-1.1-4.2-3.7-4c-2.2,0.1-3.3,2-3.9,3.9c-1.9,6.6-3.8,13.3-5.5,19.9c-0.8,3.1,0.4,5.1,3.6,5.8
	C376.9,349.2,371.6,352.3,364.9,349.5z"/>
<path class="st1" d="M293.5,310.2c0.1,8.4,3.8,15.6,9.3,21.3c5.3,5.4,8.6,11.6,11.1,18.5c-3.3,1.3-6.8,1.6-10.3,1.1
	c0,0,0.7,0.1,0.7,0.1c-1.3-0.3-2.6-0.7-4-1c-1.3-5.8-6.1-9.1-9.7-13.4c-1.6-1.9-2.3-5.3-5.6-4.8c-4,0.7-2.7,4.6-3.7,7.2
	c-1,2.6-0.6,5.2-0.3,7.7c-6.6,0.6-13.1-0.6-19.8-0.5c-8.3,0.2-14-5.7-17.3-13.1c-4-8.8-7.6-17.7-11.2-26.7
	c-4.6-11.8-0.2-17.2,13.1-16.3c-6.1,1.6-14.5,2.9-12.4,11c3.7,14.3,7.9,29,19,39.8c6.3,6.2,11.8,4.3,15.2-3.8
	c5.4-12.5,0.7-25.2,1.1-37.9c6.9-8.4,9.8-8.4,16.4-0.2C288.1,302.9,290.8,306.6,293.5,310.2z"/>
<path class="st1" d="M593.5,259.4c-2.5-10.9-3-22.1-4-33.2c-0.7-7.5-1.9-15.3-10.9-18.1c0.1-1.6,0.1-3.3,0.3-4.9
	c0.7-5.4-1.3-12.3,5.3-14.9c5.9-2.3,8.2,4.1,11.9,7.1c2,1.6,4.7,2.3,7.1,3.4c2.4,3.4,4.2,7.6,7.3,10.2c4.6,3.8,6.9,12,15.4,9.5
	c-0.5,7.3-2.6,13.7-8.7,18.3c-3.1-3.8-6.3-7.6-9.4-11.4c-1.5-1.9-4.3-4.3-5.3-1.7c-2.4,5.8-0.6,12.4,1.2,18c1.6,4.8,6.2,0.6,9.4,0.2
	C606.7,247.9,604.1,258.2,593.5,259.4z"/>
<path class="st1" d="M246.2,239c0.5-0.1,0.9,0,1.1,0.4C246.6,240.3,246.2,240.4,246.2,239z"/>
<path class="st1" d="M230.7,233.3c0,0-0.2-0.3-0.2-0.3C230.5,233,230.7,233.3,230.7,233.3z"/>
<path class="st1" d="M251.9,241.5c0,0-0.3-0.1-0.4-0.1C251.5,241.4,251.9,241.5,251.9,241.5z"/>
<path class="st1" d="M616.7,238.8c-0.2-0.5-0.1-0.9,0.3-1.2l0.2,0.7L616.7,238.8z"/>
<path class="st1" d="M241.4,237.3c0,0-0.3,0-0.3,0C241,237.3,241.4,237.3,241.4,237.3z"/>
<path class="st1" d="M238.6,236.3l-0.2,0C238.4,236.3,238.6,236.3,238.6,236.3z"/>
<path class="st1" d="M236.1,235.5c0,0-0.4-0.1-0.4-0.1C235.7,235.4,236.1,235.5,236.1,235.5z"/>
<path class="st1" d="M233.4,234.4c0,0-0.3-0.1-0.4-0.1L233.4,234.4z"/>
<path class="st0" d="M688.9,234.3c0.9,0.3,1.8,0.7,2.6,1c2.6,1,5.3,2,7.9,3c2.6,1,5.3,2,7.9,3c3.5,1.8,8.2,3,6.3,8.4
	c-1.8,5.1-6.3,4.1-10.2,3c-8.3-2.3-16.6-4.9-24.9-7.3C676.2,236.1,678.4,233.8,688.9,234.3z"/>
</svg>
