<?xml version="1.0" encoding="utf-8"?>
<!-- Generator: Adobe Illustrator 26.2.1, SVG Export Plug-In . SVG Version: 6.00 Build 0)  -->
<svg version="1.1" id="Layer_1" xmlns="http://www.w3.org/2000/svg" xmlns:xlink="http://www.w3.org/1999/xlink" x="0px" y="0px"
	 viewBox="0 0 352.1 270.5" style="enable-background:new 0 0 352.1 270.5;" xml:space="preserve">
<style type="text/css">
	.st0{fill:#92C470;}
</style>
<path class="st0" d="M205.4,200.9c-10.2,0.6-19.3-4.5-29.1-5.8c-2.1-0.3-4.5-1.6-4.5-3.4c-0.5-10.3-8.9-9.6-15.4-11.8
	c-10.4-3.5-20.8-6.9-31.1-10.5c-2.1-0.7-5.2-2.5-5.3-4c-1-13.8-13.6-14.7-21.9-20.2c-2.7-1.8-5.9-3-8.8-4.6c-5.7-3-11.4-6-8.7-14.3
	c0.6-1.8-1.2-2.9-2.8-3.5C67,118.2,57.9,110.7,47.7,105C36.9,92.8,22.9,84.5,11.4,73.3c-0.9-0.9-2.1-1.7-2.9-2.7
	c-3.1-3.9-10.8-6-7.8-12.2c2.4-4.9,8.5,0.2,12.8-1.1c19.2,0.1,38.2,2.8,57.3,5.3c3.8,0.5,6.8,2.5,10.2,3.8
	c6.4,1.9,12.8,3.9,19.2,5.8c1.8,0.9,4.3,2,5.4,0.1c4.8-7.8,10.7-5,17.4-3.1c7.3,2.1,14.6,4.4,21.7,7c5.4,2,10.1,5,15.2-0.8
	c1.8-2.1,5.2-0.9,7.5,0.4c12.2,6.7,25.3,11.8,36.8,19.6c3.1,2.1,5.5,3.3,8.9,1c4.7-3.2,8.3-0.7,12.5,2c13.3,8.2,24.8,18.6,37.2,28.1
	c4,3,6.8,4.6,10.9,0.2c3.5-3.7,7-2.4,10,1.6c14.2,19.3,30.6,37.5,39.8,59.6c4.6,11.1,11.5,13.6,20.7,16.1c2.7,0.7,6.2,0,7.9,3.2
	c-1.8,6.4-6.8,5.2-11.2,4.1c-11.4-2.8-22.7-5.7-34.6-3.3c-0.3-4.2-1.3-7-6.5-7.9c-6.9-1.2-13.6-4-19.9-7.2
	c-33.9-16.8-69.4-30.1-103.9-45.5c-36.7-16.6-74-32.3-110-50.9c-1.2-0.6-2.4-1.2-3.4-2c-5.2-3.9-9.1-8.6-5.3-15.2
	c3.8-6.7,9.3-2.2,14.1-0.9c1.5,0.4,2.7,1.7,4.3,2.1c12.9,3.8,24,11.5,36,17.1c13.6,6.3,27.3,11.9,41.5,16.4
	c11.5,7.3,24,12.7,36.7,17.6c36.9,14.1,72.6,31.1,108.4,47.6c0.9,0.4,1.9,0.7,4.1,0.6c-4.4-6.2-6.8-13-10.9-18.9
	c-3.8-5.4-8.3-9.4-15.4-9.6c-3.8-0.1-7-1.8-9.8-4.4c-7.3-6.8-15.6-12.3-23.5-18.3c-5.7-4.3-11.2-8-19-6.2c-5.2,1.2-9.4-2.2-13.5-5.2
	c-11.6-8.4-23.6-16-36.9-21.4c-10.9,1.4-21.2-1.5-31.3-5.2c-8.7-4.3-17.4-8.3-26.6-1c-1.4,1.1-3.1,0.4-4.6-0.2
	c-11.4-4.3-24-4.4-35.1-10c-9.5-4.7-20.3-4-30.6-5.7c-1.9-0.3-4.4-0.9-5.5,1c-1.6,2.7,1.2,4.1,2.8,5.6c15,13.9,32.6,23.9,50.5,33.3
	c3.3,1.7,7.2,3.4,7.7,7.2c2.2,15.9,15.6,18.7,27.2,22.4c7.9,2.6,15.3,3.9,17.1,13.8c0.8,4.3,5.1,5.8,9.1,6.8
	c6.1,2.7,12.5,4.3,18.9,5.7c8.4,1.8,15.5,4.2,20.5,12c3,4.8,9.3,4.3,14.4,5.4c3.9,0.8,7.8,1.1,11.6,2.3c14.6,0.9,26,10.1,39,14.9
	c0.9,0,1.8,0.1,2.7,0.1c9.8,1.1,19.4,0.5,28.5-4c2.4-1.2,5.1-1,7.7-0.5c1,0.3,1.9,0.5,2.9,0.7c3.4,0.5,5.9,1.8,5.7,5.8
	c-5.3,5.9-13.5,4-19.7,7.4h0.1c-5.9,1.1-11.8,1.8-17.7,2.7l0,0c-8.8,0.5-17.6,1.7-26.5,1.9c-4.1,0.1-8.6-0.7-6.2-6.7
	c2-5-1.1-5.6-4.6-6.2C222.9,203.9,214.1,202.8,205.4,200.9z"/>
</svg>
